<svg width="20" height="20" viewBox="0 0 20 20" fill="none" xmlns="http://www.w3.org/2000/svg">
<path d="M14.1667 9.76667V11.6667C14.1667 14.8883 11.5551 17.5 8.33341 17.5C5.11175 17.5 2.50008 14.8883 2.50008 11.6667V9.76667C2.50008 9.4353 2.76871 9.16667 3.10008 9.16667H13.5667C13.8981 9.16667 14.1667 9.4353 14.1667 9.76667Z" stroke="#403F3D" stroke-width="1.5" stroke-linecap="round" stroke-linejoin="round"/>
<path d="M10.0001 7.50008C10.0001 6.66675 10.5953 5.83341 11.7858 5.83341V5.83341C13.1008 5.83341 14.1667 4.76743 14.1667 3.45246V2.91675" stroke="#403F3D" stroke-width="1.5" stroke-linecap="round" stroke-linejoin="round"/>
<path d="M6.66659 7.5V7.08333C6.66659 5.70262 7.78587 4.58333 9.16659 4.58333V4.58333C10.0871 4.58333 10.8333 3.83714 10.8333 2.91667V2.5" stroke="#403F3D" stroke-width="1.5" stroke-linecap="round" stroke-linejoin="round"/>
<path d="M13.3333 9.16675H15.4166C16.5672 9.16675 17.4999 10.0995 17.4999 11.2501C17.4999 12.4007 16.5672 13.3334 15.4166 13.3334H14.1666" stroke="#403F3D" stroke-width="1.5" stroke-linecap="round" stroke-linejoin="round"/>
</svg>
